# xmcd CD database file
#
# Track frame offsets:
#	150
#	10232
#	22737
#	33390
#	44590
#	57052
#	67610
#	78477
#	88745
#	100140
#	111457
#	121552
#	132400
#	144457
#	154915
#	166735
#	181065
#	193540
#	206667
#	219295
#	228320
#	238777
#	249945
#	264702
#
# Disc length: 3718 seconds
#
# Revision: 5
# Processed by: cddbd v1.5.2PL0 Copyright (c) Steve Scherf et al.
# Submitted via: CDex 1.51
#
DISCID=390e8418
DTITLE=Various Artist - Okeh Soul
DYEAR=1982
DGENRE=Soul
TTITLE0=Major Lance - Delilah
TTITLE1=Major Lance - The Monkey Time
TTITLE2=Major Lance - Um, Um, Um, Um, Um, Um
TTITLE3=Major Lance - Hey Little Girl
TTITLE4=Major Lance - You'll Want Me Back
TTITLE5=Major Lance - Think Nothing About It
TTITLE6=Major Lance - The Matador
TTITLE7=Major Lance - Rhythm
TTITLE8=Billy Butler and The Enchanters - Found True Love
TTITLE9=Billy Butler and The Enchanters - (You Make Me Think) You Ain't Ready
TTITLE10=Billy Butler and The Enchanters - Gotta Get Away
TTITLE11=Billy Butler and The Enchanters - I Can't Work No Longer
TTITLE12=Walter Jackson - Welcome Home
TTITLE13=Walter Jackson - That's What Mama Say
TTITLE14=Walter Jackson - What Would You Do
TTITLE15=Walter Jackson - My Ship Is Coming In [Stereo]
TTITLE16=Walter Jackson - It's An Uphill Climb (To The Bottom)
TTITLE17=Walter Jackson - It's All Over
TTITLE18=The Opals - Does It Matter
TTITLE19=The Artistics - Patty Cake
TTITLE20=The Artistics - Get My Hands On Some Lovin'
TTITLE21=The Artistics - This Heart Of Mine
TTITLE22=The Vibrations - Misty
TTITLE23=The Vibrations - Forgive And Forget
EXTD=YEAR: 1982
EXTT0=
EXTT1=
EXTT2=
EXTT3=
EXTT4=
EXTT5=
EXTT6=
EXTT7=
EXTT8=
EXTT9=
EXTT10=
EXTT11=
EXTT12=
EXTT13=
EXTT14=
EXTT15=
EXTT16=
EXTT17=
EXTT18=
EXTT19=
EXTT20=
EXTT21=
EXTT22=
EXTT23=
PLAYORDER=
